<svg xmlns="http://www.w3.org/2000/svg" viewBox="0 0 120 120">
  <defs>
    <style>
      .a {
        fill: #A2D49B;
      }

      .b {
        fill: #AAA;
      }
      .c {
        fill: #AAA;
      }
    </style>
  </defs>
  <g>
    <path class="a" d="M60,13.5A46.5,46.5,0,1,0,106.5,60,46.5,46.5,0,0,0,60,13.5Zm0,81.38A34.88,34.88,0,1,1,94.88,60,34.88,34.88,0,0,1,60,94.88Z"/>
    <circle class="a" cx="60" cy="60" r="31.62"/>
    <path class="b" d="M116.5,93a3.48,3.48,0,0,1-3.5-3.47V30.47a3.5,3.5,0,0,1,7,0V89.53A3.48,3.48,0,0,1,116.5,93Z"/>
    <path class="c" d="M3.5,93A3.48,3.48,0,0,1,0,89.53V30.47a3.5,3.5,0,0,1,7,0V89.53A3.48,3.48,0,0,1,3.5,93Z"/>
  </g>
</svg>
